<?xml version="1.0" encoding="UTF-8" ?>
<!DOCTYPE svg PUBLIC "-//W3C//DTD SVG 1.1//EN" "http://www.w3.org/Graphics/SVG/1.1/DTD/svg11.dtd">
<svg width="1000pt" height="1000pt" viewBox="0 0 1000 1000" version="1.1" xmlns="http://www.w3.org/2000/svg">
<g id="#ffffffff">
<path fill="#ffffff" opacity="1.00" d=" M 0.00 0.00 L 394.46 0.00 C 355.36 101.20 316.34 202.44 277.27 303.66 C 341.47 298.02 405.66 292.32 469.86 286.66 C 440.58 363.04 411.28 439.41 382.00 515.79 C 495.04 390.06 608.09 264.34 721.12 138.60 C 644.83 145.32 568.53 152.04 492.23 158.74 C 534.74 105.82 577.24 52.89 619.79 0.00 L 1000.00 0.00 L 1000.00 1000.00 L 0.00 1000.00 L 0.00 0.00 M 245.50 615.69 C 235.98 617.35 226.81 621.22 219.19 627.19 C 196.08 644.71 191.32 680.25 206.61 704.34 C 213.85 715.96 225.66 724.47 238.78 728.22 C 252.22 732.04 266.88 731.67 280.05 726.97 C 292.38 722.59 303.14 713.82 309.57 702.39 C 317.37 688.71 319.02 671.94 315.15 656.78 C 311.77 643.50 303.29 631.58 291.70 624.23 C 278.17 615.50 261.23 612.98 245.50 615.69 M 99.47 728.75 C 117.65 728.75 135.84 728.79 154.02 728.73 C 164.03 728.57 174.49 725.08 181.11 717.27 C 188.93 708.12 189.92 694.16 184.35 683.65 C 181.45 678.07 176.71 673.59 171.21 670.62 C 173.63 668.88 175.94 666.96 177.85 664.67 C 187.33 653.68 186.43 635.22 175.68 625.38 C 168.84 619.01 159.22 616.59 150.06 616.71 C 133.20 616.71 116.34 616.71 99.48 616.71 C 99.45 654.06 99.47 691.40 99.47 728.75 M 342.04 680.95 C 341.49 686.73 340.56 693.05 336.38 697.44 C 331.99 701.96 325.64 703.58 319.76 705.20 C 321.94 713.46 324.14 721.71 326.31 729.98 C 337.34 728.40 348.78 724.95 356.78 716.80 C 365.00 708.52 368.14 696.67 369.13 685.36 C 370.18 670.97 371.08 656.57 372.09 642.18 C 382.15 642.18 392.22 642.17 402.28 642.18 C 402.29 671.04 402.28 699.90 402.29 728.75 C 411.51 728.76 420.74 728.75 429.97 728.76 C 429.98 691.41 429.98 654.06 429.97 616.71 C 402.23 616.71 374.50 616.71 346.76 616.71 C 345.17 638.12 343.64 659.54 342.04 680.95 M 452.56 616.71 C 452.55 654.06 452.56 691.40 452.55 728.74 C 468.69 728.74 484.83 728.81 500.97 728.71 C 512.81 728.41 525.38 724.56 533.15 715.14 C 541.38 705.20 542.92 691.09 539.95 678.86 C 537.47 668.62 529.94 659.89 520.28 655.76 C 507.68 649.96 493.52 651.89 480.10 651.56 C 480.07 639.94 480.10 628.33 480.09 616.71 C 470.91 616.70 461.73 616.71 452.56 616.71 M 535.78 616.71 C 535.77 625.13 535.77 633.54 535.78 641.95 C 546.61 641.96 557.44 641.95 568.27 641.96 C 568.28 670.89 568.27 699.82 568.27 728.75 C 577.45 728.76 586.62 728.75 595.80 728.76 C 595.81 699.82 595.80 670.89 595.81 641.96 C 606.69 641.95 617.57 641.96 628.45 641.95 C 628.45 633.54 628.45 625.13 628.45 616.71 C 597.56 616.71 566.67 616.71 535.78 616.71 M 620.44 728.75 C 630.06 728.76 639.67 728.77 649.28 728.74 C 651.46 722.64 653.65 716.55 655.84 710.45 C 670.92 710.45 686.00 710.42 701.08 710.47 C 703.30 716.56 705.54 722.66 707.78 728.76 C 717.24 728.76 726.69 728.76 736.15 728.75 C 721.87 691.40 707.58 654.05 693.28 616.71 C 683.47 616.71 673.65 616.71 663.84 616.71 C 649.37 654.05 634.92 691.40 620.44 728.75 M 741.28 616.72 C 752.30 635.03 763.36 653.32 774.37 671.64 C 762.90 690.67 751.43 709.71 739.98 728.75 C 750.55 728.76 761.12 728.76 771.70 728.76 C 780.34 713.96 788.99 699.18 797.62 684.37 C 800.64 684.34 803.67 684.35 806.71 684.36 C 806.72 699.16 806.70 713.95 806.72 728.76 C 815.74 728.76 824.76 728.76 833.79 728.75 C 833.80 713.96 833.79 699.16 833.79 684.37 C 836.80 684.34 839.82 684.36 842.85 684.35 C 851.46 699.12 860.17 713.84 868.68 728.67 C 879.29 728.87 889.91 728.70 900.53 728.75 C 889.07 709.71 877.60 690.67 866.14 671.64 C 877.15 653.32 888.21 635.03 899.22 616.72 C 888.73 616.70 878.23 616.71 867.74 616.71 C 859.34 631.08 850.96 645.47 842.59 659.85 C 839.65 659.87 836.72 659.86 833.79 659.86 C 833.79 645.48 833.80 631.10 833.79 616.72 C 824.76 616.70 815.74 616.71 806.72 616.71 C 806.71 631.10 806.71 645.48 806.72 659.86 C 803.79 659.87 800.86 659.86 797.94 659.87 C 789.54 645.49 781.17 631.09 772.77 616.71 C 762.27 616.71 751.78 616.70 741.28 616.72 M 396.34 801.98 C 396.38 839.06 396.27 876.15 396.40 913.23 C 405.51 913.16 414.61 913.22 423.72 913.20 C 423.73 899.74 423.72 886.30 423.73 872.85 C 437.66 872.83 451.59 872.85 465.53 872.84 C 465.51 865.41 465.53 857.99 465.51 850.58 C 451.53 850.57 437.55 850.59 423.57 850.57 C 423.58 842.00 423.56 833.43 423.58 824.87 C 439.03 824.86 454.49 824.87 469.94 824.87 C 469.95 817.24 469.95 809.61 469.94 801.98 C 445.41 801.97 420.88 801.97 396.34 801.98 M 485.74 801.98 C 485.73 839.05 485.73 876.12 485.74 913.19 C 494.74 913.20 503.74 913.20 512.74 913.20 C 512.75 890.37 512.73 867.54 512.75 844.71 C 521.31 856.68 529.87 868.65 538.44 880.62 C 542.53 880.62 546.62 880.62 550.71 880.63 C 559.31 868.68 567.84 856.68 576.43 844.72 C 576.43 867.55 576.42 890.37 576.43 913.20 C 585.50 913.20 594.58 913.19 603.65 913.20 C 603.67 876.13 603.66 839.05 603.66 801.98 C 595.55 801.97 587.44 801.97 579.33 801.98 C 567.73 817.72 556.16 833.47 544.54 849.19 C 532.97 833.45 521.41 817.70 509.83 801.98 C 501.80 801.98 493.77 801.97 485.74 801.98 Z" />
<path fill="#ffffff" opacity="1.00" d=" M 125.79 637.00 C 132.54 637.05 139.31 636.89 146.06 637.08 C 152.09 637.21 158.21 641.57 158.63 647.91 C 159.85 654.61 154.70 661.20 148.01 661.97 C 140.64 662.70 133.19 662.13 125.79 662.31 C 125.78 653.87 125.78 645.44 125.79 637.00 Z" />
<path fill="#ffffff" opacity="1.00" d=" M 249.43 640.65 C 259.70 638.26 271.36 640.49 279.16 647.85 C 291.36 659.39 292.39 680.20 282.69 693.59 C 272.40 707.76 249.75 709.64 236.72 698.26 C 226.03 689.01 223.54 672.88 228.06 659.94 C 231.30 650.42 239.59 642.84 249.43 640.65 Z" />
<path fill="#ffffff" opacity="1.00" d=" M 678.71 644.72 C 684.28 660.01 689.80 675.32 695.35 690.62 C 684.13 690.63 672.92 690.62 661.71 690.62 C 667.37 675.32 673.05 660.02 678.71 644.72 Z" />
<path fill="#ffffff" opacity="1.00" d=" M 479.63 674.14 C 488.35 674.64 497.53 672.76 505.87 675.99 C 514.41 679.33 516.23 690.83 512.17 698.23 C 509.34 703.23 503.32 705.15 497.90 705.41 C 491.81 705.59 485.72 705.44 479.63 705.49 C 479.63 695.04 479.63 684.59 479.63 674.14 Z" />
<path fill="#ffffff" opacity="1.00" d=" M 125.79 682.00 C 132.53 682.00 139.27 681.98 146.02 682.01 C 150.73 682.02 155.94 683.31 158.95 687.23 C 163.99 693.87 161.14 705.28 152.64 707.41 C 143.86 709.39 134.72 707.97 125.79 708.40 C 125.78 699.60 125.78 690.80 125.79 682.00 Z" />
</g>
</svg>
